HIERARCHY
ROOT root
{
  OFFSET 0 93.2929 0
  CHANNELS 6 Xposition Yposition Zposition Zrotation Xrotation Yrotation
  JOINT torso_1
  {
    OFFSET 0 5.07867 -1.15138
    CHANNELS 6 Xposition Yposition Zposition Zrotation Xrotation Yrotation
    JOINT torso_2
    {
      OFFSET 0 5.61661 1.07143
      CHANNELS 6 Xposition Yposition Zposition Zrotation Xrotation Yrotation
      JOINT torso_3
      {
        OFFSET -1.02604e-17 5.98978 0.11501
        CHANNELS 6 Xposition Yposition Zposition Zrotation Xrotation Yrotation
        JOINT torso_4
        {
          OFFSET -1.10457e-17 6.50583 -0.443523
          CHANNELS 6 Xposition Yposition Zposition Zrotation Xrotation Yrotation
          JOINT torso_5
          {
            OFFSET -1.97295e-17 7.60548 -1.50593
            CHANNELS 6 Xposition Yposition Zposition Zrotation Xrotation Yrotation
            JOINT torso_6
            {
              OFFSET -2.53307e-17 9.49737 -0.914492
              CHANNELS 6 Xposition Yposition Zposition Zrotation Xrotation Yrotation
              JOINT torso_7
              {
                OFFSET -2.90401e-17 10.5513 1.57691
                CHANNELS 6 Xposition Yposition Zposition Zrotation Xrotation Yrotation
                JOINT neck_1
                {
                  OFFSET -1.29193e-17 4.78644 0.715339
                  CHANNELS 6 Xposition Yposition Zposition Zrotation Xrotation Yrotation
                  JOINT neck_2
                  {
                    OFFSET -1.8116e-17 4.82109 0.421791
                    CHANNELS 6 Xposition Yposition Zposition Zrotation Xrotation Yrotation
                    JOINT head
                    {
                      OFFSET -2.00958e-17 4.83041 0.765062
                      CHANNELS 6 Xposition Yposition Zposition Zrotation Xrotation Yrotation
                      End Site
                      {
                        OFFSET 0 0.1 0
                      }
                    }
                  }
                }
                JOINT l_shoulder
                {
                  OFFSET 1.23299 -7.60731 7.53374
                  CHANNELS 6 Xposition Yposition Zposition Zrotation Xrotation Yrotation
                  JOINT l_up_arm
                  {
                    OFFSET 12.9547 3.2495 -3.26872
                    CHANNELS 6 Xposition Yposition Zposition Zrotation Xrotation Yrotation
                    JOINT l_low_arm
                    {
                      OFFSET 29.2081 0.0598081 0.137039
                      CHANNELS 6 Xposition Yposition Zposition Zrotation Xrotation Yrotation
                      JOINT l_hand
                      {
                        OFFSET 24.234 0.0496219 0.113701
                        CHANNELS 6 Xposition Yposition Zposition Zrotation Xrotation Yrotation
                        End Site
                        {
                          OFFSET 0.1 0 0
                        }
                      }
                    }
                  }
                }
                JOINT r_shoulder
                {
                  OFFSET -1.23299 -7.60729 7.53365
                  CHANNELS 6 Xposition Yposition Zposition Zrotation Xrotation Yrotation
                  JOINT r_up_arm
                  {
                    OFFSET -12.9547 3.2495 -3.26872
                    CHANNELS 6 Xposition Yposition Zposition Zrotation Xrotation Yrotation
                    JOINT r_low_arm
                    {
                      OFFSET -29.2081 0.0598081 0.137039
                      CHANNELS 6 Xposition Yposition Zposition Zrotation Xrotation Yrotation
                      JOINT r_hand
                      {
                        OFFSET -24.234 0.0496218 0.113702
                        CHANNELS 6 Xposition Yposition Zposition Zrotation Xrotation Yrotation
                        End Site
                        {
                          OFFSET -0.1 0 0
                        }
                      }
                    }
                  }
                }
              }
            }
          }
        }
      }
    }
  }
  JOINT l_up_leg
  {
    OFFSET 9.23673 -4.20556 2.0327
    CHANNELS 6 Xposition Yposition Zposition Zrotation Xrotation Yrotation
    JOINT l_low_leg
    {
      OFFSET -0.852353 -38.7721 -0.655187
      CHANNELS 6 Xposition Yposition Zposition Zrotation Xrotation Yrotation
      JOINT l_foot
      {
        OFFSET -2.32622 -40.4017 -6.04875
        CHANNELS 6 Xposition Yposition Zposition Zrotation Xrotation Yrotation
        JOINT l_toes
        {
          OFFSET 0.779096 -9.8844 12.4959
          CHANNELS 6 Xposition Yposition Zposition Zrotation Xrotation Yrotation
          End Site
          {
            OFFSET 0 0 0.1
          }
        }
      }
    }
  }
  JOINT r_up_leg
  {
    OFFSET -9.23673 -4.20556 2.0327
    CHANNELS 6 Xposition Yposition Zposition Zrotation Xrotation Yrotation
    JOINT r_low_leg
    {
      OFFSET 0.852353 -38.7721 -0.655187
      CHANNELS 6 Xposition Yposition Zposition Zrotation Xrotation Yrotation
      JOINT r_foot
      {
        OFFSET 2.32622 -40.4017 -6.04875
        CHANNELS 6 Xposition Yposition Zposition Zrotation Xrotation Yrotation
        JOINT r_toes
        {
          OFFSET -0.779096 -9.8844 12.4959
          CHANNELS 6 Xposition Yposition Zposition Zrotation Xrotation Yrotation
          End Site
          {
            OFFSET 0 0 0.1
          }
        }
      }
    }
  }
}
MOTION
Frames: 4
Frame Time: 0.016667
0 93.2929 0 -0 0 -0 0 5.07867 -1.15138 -0 0 -0 0 5.61661 1.07143 -0 0 -0 -1.02604e-17 5.98978 0.11501 -0 0 -0 -1.10457e-17 6.50583 -0.443523 -0 0 -0 -1.97295e-17 7.60548 -1.50593 -0 0 -0 -2.53307e-17 9.49737 -0.914492 -0 0 -0 -2.90401e-17 10.5513 1.57691 -0 0 -0 -1.29193e-17 4.78644 0.715339 -0 0 -0 -1.8116e-17 4.82109 0.421791 -0 0 -0 -2.00958e-17 4.83041 0.765062 -0 0 -0 1.23299 -7.60731 7.53374 -0 0 -0 12.9547 3.2495 -3.26872 -0 0 -0 29.2081 0.0598081 0.137039 -0 0 -0 24.234 0.0496219 0.113701 -0 0 -0 -1.23299 -7.60729 7.53365 -0 0 -0 -12.9547 3.2495 -3.26872 -0 0 -0 -29.2081 0.0598081 0.137039 -0 0 -0 -24.234 0.0496218 0.113702 -0 0 -0 9.23673 -4.20556 2.0327 -0 0 -0 -0.852353 -38.7721 -0.655187 -0 0 -0 -2.32622 -40.4017 -6.04875 -0 0 -0 0.779096 -9.8844 12.4959 -0 0 -0 -9.23673 -4.20556 2.0327 -0 0 -0 0.852353 -38.7721 -0.655187 -0 0 -0 2.32622 -40.4017 -6.04875 -0 0 -0 -0.779096 -9.8844 12.4959 -0 0 -0 
0.852405 93.6749 -4.7686 0.879311 -1.60803 -2.97257 0 5.07867 -1.15138 -0.869542 3.18863 -0.165296 0 5.61661 1.07143 -0.712111 2.61624 -0.275718 -1.02604e-17 5.98978 0.11501 -0.448149 2.31273 -0.225299 -1.10457e-17 6.50583 -0.443523 -0.186432 1.74693 -0.215391 -1.97295e-17 7.60548 -1.50593 0.0500943 1.05315 -0.209698 -2.53307e-17 9.49737 -0.914492 0.273615 0.813875 -0.276262 -2.90401e-17 10.5513 1.57691 0.00974348 0.143847 -0.00607268 -1.29193e-17 4.78644 0.715339 0.578054 4.79129 -0.641261 -1.8116e-17 4.82109 0.421791 0.268282 0.579083 -0.638369 -2.00958e-17 4.83041 0.765062 -0.294817 1.69137 -2.49237 1.23299 -7.60731 7.53374 -1.2964 1.87405 -0.640227 12.9547 3.2495 -3.26872 -78.7644 9.52125 -4.00018 29.2081 0.0598081 0.137039 3.43213 -0.48755 -16.7617 24.234 0.0496219 0.113701 0.670027 -13.1412 -4.55405 -1.23299 -7.60729 7.53365 0.670365 2.11026 0.605017 -12.9547 3.2495 -3.26872 72.4981 -2.52318 4.09942 -29.2081 0.0598081 0.137039 -4.33409 -0.793945 21.3442 -24.234 0.0496218 0.113702 0.79714 -28.4341 3.57354 9.23673 -4.20556 2.0327 0.220251 4.03929 -10.2123 -0.852353 -38.7721 -0.655187 0.629232 -2.34327 0.0537817 -2.32622 -40.4017 -6.04875 -0.533202 2.40755 15.1379 0.779096 -9.8844 12.4959 -8.21445e-17 -7.99259e-16 1.65441e-17 -9.23673 -4.20556 2.0327 -2.71927 -3.96139 20.5215 0.852353 -38.7721 -0.655187 1.61049 6.0087 0.0204435 2.32622 -40.4017 -6.04875 -0.766225 1.1684 -15.0278 -0.779096 -9.8844 12.4959 -2.05377e-15 -5.01114e-16 -1.26808e-14 
0.793847 93.6736 -4.86458 0.773432 -1.5078 -2.85524 0 5.07867 -1.15138 -0.860531 3.19164 -0.192958 0 5.61661 1.07143 -0.699708 2.59901 -0.308186 -1.02604e-17 5.98978 0.11501 -0.433914 2.26297 -0.258506 -1.10457e-17 6.50583 -0.443523 -0.168126 1.63257 -0.251161 -1.97295e-17 7.60548 -1.50593 0.0639642 0.921648 -0.2404 -2.53307e-17 9.49737 -0.914492 0.28182 0.654409 -0.305654 -2.90401e-17 10.5513 1.57691 0.0109383 0.144926 -0.00500452 -1.29193e-17 4.78644 0.715339 0.636982 3.93702 0.623933 -1.8116e-17 4.82109 0.421791 0.100308 0.237087 -0.0732749 -2.00958e-17 4.83041 0.765062 -0.269659 1.32445 -2.2775 1.23299 -7.60731 7.53374 -1.04066 1.94824 -0.649768 12.9547 3.2495 -3.26872 -79.1034 9.8606 -4.06171 29.2081 0.0598081 0.137039 3.57456 -0.530614 -17.4777 24.234 0.0496219 0.113701 0.648666 -12.6015 -4.51192 -1.23299 -7.60729 7.53365 1.29147 2.36614 0.853943 -12.9547 3.2495 -3.26872 72.2874 -2.92672 4.20825 -29.2081 0.0598081 0.137039 -4.25312 -0.76312 20.9276 -24.234 0.0496218 0.113702 0.782646 -27.4841 3.51386 9.23673 -4.20556 2.0327 0.392529 3.74131 -10.4048 -0.852353 -38.7721 -0.655187 0.566603 -2.11056 0.0472854 -2.32622 -40.4017 -6.04875 -0.498567 2.26549 15.1451 0.779096 -9.8844 12.4959 -3.47873e-16 -8.07563e-16 2.48481e-17 -9.23673 -4.20556 2.0327 -2.56643 -4.18163 20.3886 0.852353 -38.7721 -0.655187 1.6474 6.14583 0.0189296 2.32622 -40.4017 -6.04875 -0.753835 1.24108 -15.0203 -0.779096 -9.8844 12.4959 -7.97527e-16 -5.58975e-16 -1.27345e-14 
0.739054 93.6672 -4.98001 0.688589 -1.43183 -2.71728 0 5.07867 -1.15138 -0.835012 3.15264 -0.225025 0 5.61661 1.07143 -0.673153 2.56052 -0.342601 -1.02604e-17 5.98978 0.11501 -0.410547 2.21455 -0.294545 -1.10457e-17 6.50583 -0.443523 -0.145559 1.55844 -0.290044 -1.97295e-17 7.60548 -1.50593 0.0755909 0.847233 -0.275859 -2.53307e-17 9.49737 -0.914492 0.281535 0.564491 -0.339065 -2.90401e-17 10.5513 1.57691 0.0118579 0.145207 -0.00425417 -1.29193e-17 4.78644 0.715339 0.71425 3.11788 1.80628 -1.8116e-17 4.82109 0.421791 -0.0867167 -0.113971 0.453885 -2.00958e-17 4.83041 0.765062 -0.280919 0.964627 -2.08231 1.23299 -7.60731 7.53374 -0.866806 2.01156 -0.713938 12.9547 3.2495 -3.26872 -79.3437 10.1669 -4.29158 29.2081 0.0598081 0.137039 3.65867 -0.556961 -17.9018 24.234 0.0496219 0.113701 0.569539 -13.0288 -4.43074 -1.23299 -7.60729 7.53365 1.87461 2.59327 1.10908 -12.9547 3.2495 -3.26872 72.0382 -3.11778 4.45834 -29.2081 0.0598081 0.137039 -4.14693 -0.723716 20.3831 -24.234 0.0496218 0.113702 0.6976 -26.3675 3.35362 9.23673 -4.20556 2.0327 0.544693 3.40737 -10.632 -0.852353 -38.7721 -0.655187 0.483079 -1.80001 0.0390138 -2.32622 -40.4017 -6.04875 -0.461613 2.10009 15.1525 0.779096 -9.8844 12.4959 -2.15691e-16 -8.03432e-16 2.07174e-17 -9.23673 -4.20556 2.0327 -2.44142 -4.39778 20.2047 0.852353 -38.7721 -0.655187 1.69024 6.30496 0.017061 2.32622 -40.4017 -6.04875 -0.757424 1.28634 -15.0113 -0.779096 -9.8844 12.4959 4.64172e-16 -6.12941e-16 -1.27885e-14 
